HIERARCHY
ROOT Hips
{
	OFFSET 0.00 0.00 0.00
	CHANNELS 6 Xposition Yposition Zposition Xrotation Yrotation Zrotation
	JOINT LeftUpLeg
	{
		OFFSET 3.66344 0.00000 0.00000
		CHANNELS 3 Xrotation Yrotation Zrotation
		JOINT LeftLeg
		{
			OFFSET 0.00000 -16.09471 0.00000
			CHANNELS 3 Xrotation Yrotation Zrotation
			JOINT LeftFoot
			{
				OFFSET 0.00000 -15.20357 0.00000
				CHANNELS 3 Xrotation Yrotation Zrotation
				JOINT LeftToeBase
				{
					OFFSET 0.00000 -1.51897 5.66885
					CHANNELS 3 Xrotation Yrotation Zrotation
					End Site
					{
						OFFSET 0.00000 0.00000 2.95273
					}
				}
			}
		}
	}
	JOINT RightUpLeg
	{
		OFFSET -3.66344 0.00000 0.00000
		CHANNELS 3 Xrotation Yrotation Zrotation
		JOINT RightLeg
		{
			OFFSET 0.00000 -16.09471 0.00000
			CHANNELS 3 Xrotation Yrotation Zrotation
			JOINT RightFoot
			{
				OFFSET 0.00000 -15.20357 0.00000
				CHANNELS 3 Xrotation Yrotation Zrotation
				JOINT RightToeBase
				{
					OFFSET 0.00000 -1.51897 5.66885
					CHANNELS 3 Xrotation Yrotation Zrotation
					End Site
					{
						OFFSET 0.00000 0.00000 2.95273
					}
				}
			}
		}
	}
	JOINT Spine
	{
		OFFSET 0.00000 0.03937 0.00000
		CHANNELS 3 Xrotation Yrotation Zrotation
		JOINT Spine1
		{
			OFFSET 0.00000 8.11179 0.00000
			CHANNELS 3 Xrotation Yrotation Zrotation
			JOINT Neck
			{
				OFFSET 0.00000 7.82546 0.00000
				CHANNELS 3 Xrotation Yrotation Zrotation
				JOINT Head
				{
					OFFSET 0.00000 5.66611 0.00000
					CHANNELS 3 Xrotation Yrotation Zrotation
					End Site
					{
						OFFSET 0.00000 4.52753 0.00000
					}
				}
			}
			JOINT LeftShoulder
			{
				OFFSET 0.00000 7.82546 0.00000
				CHANNELS 3 Xrotation Yrotation Zrotation
				JOINT LeftArm
				{
					OFFSET 6.38379 -0.00002 0.00000
					CHANNELS 3 Xrotation Yrotation Zrotation
					JOINT LeftForeArm
					{
						OFFSET 10.84793 -0.00004 0.00000
						CHANNELS 3 Xrotation Yrotation Zrotation
						JOINT LeftHand
						{
							OFFSET 7.69573 -0.00003 0.00000
							CHANNELS 3 Xrotation Yrotation Zrotation
							JOINT LeftHandThumb
							{
								OFFSET 0.00000 0.00000 0.00000
								CHANNELS 3 Xrotation Yrotation Zrotation
								End Site
								{
									OFFSET 0.00000 0.00000 3.93698
								}
							}
							JOINT L_Wrist_End
							{
								OFFSET 3.93698 -0.00001 0.00000
								CHANNELS 3 Xrotation Yrotation Zrotation
							}
						}
					}
				}
			}
			JOINT RightShoulder
			{
				OFFSET 0.00000 7.82546 0.00000
				CHANNELS 3 Xrotation Yrotation Zrotation
				JOINT RightArm
				{
					OFFSET -6.38379 -0.00002 0.00000
					CHANNELS 3 Xrotation Yrotation Zrotation
					JOINT RightForeArm
					{
						OFFSET -10.84793 -0.00004 0.00000
						CHANNELS 3 Xrotation Yrotation Zrotation
						JOINT RightHand
						{
							OFFSET -7.69573 -0.00003 0.00000
							CHANNELS 3 Xrotation Yrotation Zrotation
							JOINT RightHandThumb
							{
								OFFSET 0.00000 0.00000 0.00000
								CHANNELS 3 Xrotation Yrotation Zrotation
								End Site
								{
									OFFSET 0.00000 0.00000 3.93698
								}
							}
							JOINT R_Wrist_End
							{
								OFFSET -5.39367 -0.00002 0.00000
								CHANNELS 3 Xrotation Yrotation Zrotation
							}
						}
					}
				}
			}
		}
	}
}
MOTION
Frames: 14
Frame Time: 0.033332
 -23.4310 33.8493 -5.4296 -27.0321 -78.1203 -27.3076 8.8743 -4.9562 -0.4168 6.0776 0.0000 -0.0000 -8.5899 3.0876 -3.8928 -6.8900 -0.0000 -0.0000 10.5658 -5.4883 4.2670 2.7963 0.0000 0.0000 -6.1895 2.1721 2.0896 -8.6431 0.0000 0.0000 4.0340 6.1797 2.2765 3.2146 0.3937 -4.4234 -7.6138 -11.6864 -2.2831 -18.3326 -2.5445 7.5248 0.3535 8.0734 6.8686 -8.4614 -31.7146 -88.8615 0.0000 -11.8865 0.0000 -5.8002 8.0556 -7.3119 -0.0000 0.0000 -0.0000 -0.0000 0.0000 -0.0000 9.1281 -23.4724 3.4716 6.8106 63.9353 66.6517 -0.0001 21.5254 0.0000 -31.5783 1.8020 15.3583 -0.0000 0.0000 -0.0000 -0.0000 0.0000 -0.0000
 -23.4059 33.8437 -5.4883 -34.4176 -79.8486 -35.3521 8.8746 -3.1109 0.0385 7.2277 0.0000 -0.0000 -9.4980 3.6451 -3.8247 -6.9754 0.0000 0.0000 10.7786 -4.4813 4.5795 2.5514 -0.0000 0.0000 -5.5589 3.9131 3.1552 -8.7389 -0.0000 -0.0000 3.9811 6.2734 2.5412 3.1026 0.6263 -4.0442 -7.6033 -9.5181 -0.9467 -16.4872 -2.0623 5.7639 0.2188 7.9454 7.6475 -8.1099 -35.1557 -92.1223 -0.0000 -9.1684 -0.0000 -3.5718 9.5823 -8.9269 -0.0000 0.0000 -0.0000 -0.0000 0.0000 -0.0000 8.6764 -23.4596 3.0938 28.1367 72.1331 38.9903 -0.0001 28.1185 -0.0000 -9.2562 -1.6036 17.3149 -0.0000 0.0000 -0.0000 -0.0000 0.0000 -0.0000
 -23.3411 33.8405 -5.5601 -44.4453 -81.2445 -45.8331 7.5553 -1.3231 0.3747 10.9885 0.0000 -0.0000 -11.2133 3.9384 -3.8110 -7.0003 0.0000 0.0000 11.0147 -1.1203 4.9894 1.7331 0.0000 -0.0000 -4.4879 2.6364 2.1755 -8.6550 0.0000 0.0000 4.2986 6.3672 2.7460 2.6502 0.7548 -3.7059 -6.6777 -7.7211 -0.7764 -16.0873 -1.9437 6.0337 0.2513 8.0357 8.7569 -7.6252 -37.3991 -94.9803 0.0000 -8.9198 -0.0000 -6.7928 11.6392 -8.6378 -0.0000 0.0000 -0.0000 -0.0000 0.0000 -0.0000 7.0070 -23.8201 0.2798 39.9075 70.2173 21.7737 -0.0002 41.7913 0.0001 -11.7491 1.5259 13.2392 -0.0000 0.0000 -0.0000 -0.0000 0.0000 -0.0000
 -23.1785 33.8191 -5.6791 -47.4522 -81.7779 -49.1659 3.6749 0.6023 1.0364 18.3249 -0.0000 -0.0000 -13.5268 2.5649 -3.4969 -7.2082 0.0000 0.0000 10.1510 2.1612 5.7438 1.9113 -0.0000 0.0000 -3.9535 -0.7832 -0.3927 -8.2744 -0.0000 -0.0000 4.8251 6.2608 3.3497 2.1149 0.6558 -4.1737 -6.2511 -6.6401 -1.1551 -16.3246 -2.1747 6.8453 0.1915 8.0561 9.4560 -5.0798 -29.2011 -94.7444 0.0000 -10.4053 0.0000 -19.9039 9.2863 -9.6264 -0.0000 -0.0000 0.0000 -0.0000 -0.0000 0.0000 5.4905 -24.1610 -3.0594 22.2421 61.2872 34.7347 -0.0004 59.3830 0.0002 -29.2568 7.9247 11.5462 -0.0000 -0.0000 0.0000 -0.0000 -0.0000 0.0000
 -22.9514 33.7670 -5.8029 -45.7691 -81.6691 -47.7280 -2.4525 2.2571 2.1039 29.3929 -0.0000 -0.0000 -14.3841 1.4162 -6.3304 -7.4979 0.0000 -0.0000 9.6462 3.5105 6.3555 1.5732 -0.0000 -0.0000 -3.7145 -2.6744 -1.5298 -7.9868 -0.0000 -0.0000 5.5806 6.2072 4.2772 1.9184 0.6077 -5.2267 -5.3908 -6.4149 -0.4640 -18.8806 -1.9819 5.8077 0.0305 8.5752 9.7540 -4.2846 -27.5818 -93.5587 0.0000 -11.8594 0.0000 -19.8879 5.8650 -9.9596 -0.0000 0.0000 -0.0000 -0.0000 0.0000 -0.0000 3.6892 -25.3076 -6.2266 5.1753 48.9557 47.5393 -0.0011 79.3898 0.0009 -35.1591 10.9650 10.6555 -0.0000 0.0000 -0.0000 -0.0000 0.0000 -0.0000
 -22.6924 33.7147 -5.9500 -41.0985 -80.7893 -43.5121 -9.4452 1.0432 3.0190 43.8314 0.0000 -0.0000 -16.5030 2.8421 -7.9112 -7.6870 -0.0000 0.0000 9.8174 3.4132 7.1004 0.4267 -0.0000 -0.0000 -2.9930 -3.4535 -1.3128 -7.9517 -0.0000 -0.0000 6.6142 5.9770 4.7527 1.6664 0.3223 -5.2440 -4.5447 -6.1593 0.2883 -21.5298 -1.9032 4.2120 -0.0923 8.8282 9.7736 -4.1499 -29.1430 -92.5914 -0.0001 -13.6172 0.0000 -17.1185 3.6554 -7.0894 -0.0000 0.0000 -0.0000 -0.0000 0.0000 -0.0000 2.5097 -26.4009 -7.9745 -9.9902 34.1619 56.6993 -179.9985 82.1155 179.9983 -34.8771 10.7602 9.8307 -0.0000 0.0000 -0.0000 -0.0000 0.0000 -0.0000
 -22.4566 33.6932 -6.0620 -37.0597 -79.5884 -39.9292 -15.6590 -1.9318 2.9424 59.1296 0.0000 -0.0000 -19.9326 3.4806 -5.5403 -7.5841 -0.0000 -0.0000 10.0011 2.7571 7.8032 -0.2220 -0.0000 0.0000 -2.3527 -3.9059 -1.0466 -7.9276 0.0000 0.0000 7.7154 5.7418 4.6593 1.1620 -0.0726 -4.2443 -4.1403 -5.7809 0.6836 -22.4652 -2.0776 2.8416 -0.1573 8.6373 9.5981 -4.4202 -30.9089 -92.3872 -0.0001 -14.2012 0.0000 -16.0825 3.2272 -4.8903 -0.0000 -0.0000 0.0000 -0.0000 -0.0000 0.0000 2.1763 -26.4960 -7.7501 -24.7859 16.9097 62.6324 -179.9995 66.7334 179.9993 -33.6907 9.4444 9.1797 -0.0000 0.0000 -0.0000 -0.0000 0.0000 -0.0000
 -22.2602 33.7186 -6.1401 -35.5747 -79.2751 -38.4659 -20.2675 -4.2449 1.9413 71.5688 -0.0000 -0.0000 -21.8824 4.5709 -3.9739 -7.5400 0.0000 -0.0000 9.4801 1.9629 7.9943 0.2201 -0.0000 -0.0000 -2.0971 -3.7111 -1.4322 -7.9160 -0.0000 -0.0000 8.4800 5.9180 4.0981 0.3524 -0.1681 -3.4354 -3.7983 -5.1248 0.8102 -22.1204 -2.7319 2.3103 -0.2532 8.3946 9.6884 -4.9826 -32.2528 -92.8808 -0.0001 -13.3991 -0.0000 -15.4306 4.0582 -4.6496 -0.0000 -0.0000 0.0000 -0.0000 -0.0000 0.0000 1.9623 -25.8553 -6.7119 -38.8347 -0.8758 66.5138 -179.9997 55.3776 179.9994 -33.9987 9.1596 8.4997 -0.0000 0.0000 -0.0000 -0.0000 0.0000 -0.0000
 -22.1405 33.7794 -6.1726 -37.6777 -80.0823 -40.0844 -22.4886 -5.2607 0.5259 78.7822 0.0000 -0.0000 -24.4746 5.6909 -1.8899 -7.5067 -0.0000 0.0000 8.7207 1.2729 7.5144 1.0719 0.0000 0.0000 -2.0564 -2.6047 -2.1078 -8.0615 0.0000 0.0000 8.4530 6.5642 3.4552 0.1670 0.3135 -3.4435 -3.7111 -4.6649 0.9705 -20.9390 -3.4086 2.1960 -0.3832 7.8608 9.9744 -5.5593 -33.5728 -93.3747 0.0000 -12.3025 0.0000 -13.3270 5.4725 -6.3594 -0.0000 0.0000 -0.0000 -0.0000 0.0000 -0.0000 1.0871 -24.6097 -6.1530 -48.6798 -17.0839 69.2763 -179.9998 47.2351 179.9995 -38.2442 10.9831 8.0015 -0.0000 0.0000 -0.0000 -0.0000 0.0000 -0.0000
 -22.0890 33.8558 -6.1703 -41.6081 -81.4001 -43.4681 -22.4380 -5.4005 -0.6246 79.9309 0.0000 0.0000 -27.1453 6.6107 0.5405 -7.4434 0.0000 -0.0000 8.0969 0.2360 6.7167 1.6200 0.0000 0.0000 -2.0822 -0.3106 -1.2270 -8.3387 0.0000 -0.0000 8.2686 7.4050 3.0191 -0.2880 1.0417 -3.8674 -3.7791 -4.3052 0.9590 -19.4116 -3.9523 2.2943 -0.5481 7.6096 10.2050 -5.9122 -35.8960 -93.5525 0.0000 -11.4347 -0.0000 -9.9646 7.1625 -8.9447 -0.0000 0.0000 -0.0000 -0.0000 0.0000 -0.0000 0.0644 -24.4501 -6.2880 -51.3401 -26.5811 73.3669 -179.9998 42.2439 179.9995 -44.7338 14.0827 7.7518 -0.0000 0.0000 -0.0000 -0.0000 0.0000 -0.0000
 -22.0884 33.9090 -6.1641 -43.8041 -82.5288 -45.6062 -20.3144 -5.4065 -0.9134 74.5027 0.0000 0.0000 -28.5940 7.7492 2.1539 -7.3541 -0.0000 0.0000 7.8480 -0.0963 6.4130 1.0799 0.0000 -0.0000 -1.8442 1.0625 -0.0904 -8.4605 -0.0000 -0.0000 8.0120 7.6704 3.1664 -1.1221 1.3518 -4.2085 -3.8698 -3.8641 1.0615 -18.2043 -3.5854 1.6693 -0.4566 7.8534 10.2734 -5.3819 -37.9044 -93.2477 -0.0000 -11.9053 0.0000 -8.3211 8.3575 -9.8241 -0.0000 0.0000 -0.0000 -0.0000 0.0000 -0.0000 -0.1439 -25.2368 -7.3186 -45.0929 -23.5064 80.1009 -179.9998 41.4359 179.9995 -45.1473 14.7418 7.7591 -0.0000 0.0000 -0.0000 -0.0000 0.0000 -0.0000
 -22.1410 33.8975 -6.1828 -49.5803 -83.4394 -51.8598 -15.5367 -5.3846 -0.1757 62.5366 -0.0000 0.0000 -28.9033 7.5902 2.0735 -7.1829 -0.0000 0.0000 8.0896 -0.2347 6.7155 0.4612 0.0000 -0.0000 -1.9292 2.3339 1.0263 -8.6328 -0.0000 0.0000 7.5244 7.3611 3.5365 -1.1375 1.2251 -4.0413 -4.0912 -2.6439 1.3427 -17.7707 -2.8955 0.6877 -0.2991 8.6786 10.4642 -5.0230 -38.2034 -93.1970 0.0000 -12.5595 -0.0000 -7.3393 8.4879 -9.3641 -0.0000 0.0000 -0.0000 -0.0000 0.0000 -0.0000 0.9063 -25.7320 -8.2437 -37.0477 -8.4729 84.4252 -179.9998 48.9859 179.9995 -40.7742 12.2226 7.5629 -0.0000 0.0000 -0.0000 -0.0000 0.0000 -0.0000
 -22.2411 33.8150 -6.2230 -63.7404 -84.3255 -67.0025 -7.9296 -5.1397 1.4986 43.4018 -0.0000 -0.0000 -25.2124 5.7309 -0.8068 -7.3509 -0.0000 -0.0000 8.1839 0.2551 7.5903 0.5894 0.0000 0.0000 -2.1055 3.6496 1.0504 -8.8700 -0.0000 0.0000 6.5652 7.0228 3.9692 0.1418 1.2604 -3.4504 -4.9399 -0.6772 0.9133 -17.5005 -3.5571 1.3140 -0.4284 9.5941 10.2396 -4.6998 -37.8381 -92.9356 0.0000 -12.5133 0.0000 -7.4015 7.5694 -7.9969 -0.0000 0.0000 -0.0000 -0.0000 0.0000 -0.0000 1.9887 -26.6101 -8.1228 -31.9771 9.9689 83.6342 -179.9995 65.2056 179.9993 -38.7751 12.2259 7.7336 -0.0000 0.0000 -0.0000 -0.0000 0.0000 -0.0000
 -22.3351 33.6562 -6.2961 -82.2103 -84.8736 -87.3955 1.4705 -5.0042 4.4212 20.6978 0.0000 -0.0000 -15.8741 3.4938 -7.1859 -7.4662 0.0000 0.0000 7.3525 2.6317 9.4544 1.6868 0.0000 0.0000 -2.8097 3.4206 0.9276 -9.0248 -0.0000 0.0000 5.7398 6.9928 4.4154 0.4108 1.5739 -2.1476 -5.9757 1.2250 0.9350 -15.3252 -4.7673 2.3137 -0.3703 9.8193 9.9986 -4.6050 -35.8197 -93.1829 -0.0000 -11.3255 -0.0000 -7.7552 7.2976 -7.3611 -0.0000 0.0000 -0.0000 -0.0000 0.0000 -0.0000 3.0594 -26.3486 -6.8830 -27.8360 27.9654 76.5252 -179.9979 84.2748 179.9977 -47.4202 16.0068 9.2083 -0.0000 0.0000 -0.0000 -0.0000 0.0000 -0.0000
